<?xml version="1.0" standalone="no"?>
<!DOCTYPE svg PUBLIC "-//W3C//DTD SVG 20010904//EN"
 "http://www.w3.org/TR/2001/REC-SVG-20010904/DTD/svg10.dtd">
<svg version="1.0" xmlns="http://www.w3.org/2000/svg"
 width="219.000000pt" height="218.000000pt" viewBox="0 0 219.000000 218.000000"
 preserveAspectRatio="xMidYMid meet">
<metadata>
Created by potrace 1.16, written by Peter Selinger 2001-2019
</metadata>
<g transform="translate(0.000000,218.000000) scale(0.100000,-0.100000)"
fill="#000000" stroke="none">
<path d="M928 1581 c-159 -51 -290 -182 -338 -339 -25 -81 -27 -225 -4 -303
43 -143 137 -255 272 -322 l86 -42 146 0 146 0 80 39 c322 159 395 582 144
836 -62 64 -139 111 -219 134 -76 22 -238 21 -313 -3z m121 -301 c41 -19 46
-19 68 -4 39 25 125 30 178 10 25 -10 50 -26 55 -36 6 -10 10 -99 10 -200 l0
-180 -272 2 -273 3 -2 170 c-2 121 1 177 10 194 30 59 142 79 226 41z"/>
<path d="M883 1260 c-38 -15 -44 -42 -41 -182 3 -112 5 -132 18 -129 81 21
110 22 159 8 l51 -15 0 149 0 148 -30 16 c-31 16 -121 19 -157 5z"/>
<path d="M1143 1260 c-38 -15 -44 -42 -41 -182 3 -112 5 -132 18 -129 81 21
110 22 159 8 l51 -15 0 149 0 148 -30 16 c-31 16 -121 19 -157 5z"/>
<path d="M888 928 c-16 -5 -28 -16 -28 -24 0 -11 21 -14 101 -14 76 0 100 3
97 13 -11 33 -109 48 -170 25z"/>
<path d="M1148 928 c-16 -5 -28 -16 -28 -24 0 -11 21 -14 101 -14 76 0 100 3
97 13 -11 33 -109 48 -170 25z"/>
</g>
</svg>
