<?xml version="1.0" standalone="no"?>
<!DOCTYPE svg PUBLIC "-//W3C//DTD SVG 20010904//EN"
 "http://www.w3.org/TR/2001/REC-SVG-20010904/DTD/svg10.dtd">
<svg version="1.0" xmlns="http://www.w3.org/2000/svg"
 width="221.000000pt" height="221.000000pt" viewBox="0 0 221.000000 221.000000"
 preserveAspectRatio="xMidYMid meet">
<metadata>
Created by potrace 1.16, written by Peter Selinger 2001-2019
</metadata>
<g transform="translate(0.000000,221.000000) scale(0.100000,-0.100000)"
fill="#000000" stroke="none">
<path d="M970 1594 c-89 -23 -161 -65 -225 -129 -99 -99 -145 -211 -145 -350
1 -137 48 -253 142 -347 196 -197 502 -196 699 1 198 198 196 506 -4 698 -129
124 -301 171 -467 127z m140 -480 c0 -210 -2 -244 -15 -244 -13 0 -15 34 -15
243 0 134 3 247 6 250 20 19 24 -27 24 -249z m-172 210 c4 -27 -21 -47 -48
-39 -20 6 -28 44 -13 59 15 15 58 1 61 -20z m353 10 c9 -11 10 -20 2 -32 -15
-24 -44 -27 -59 -7 -28 38 27 75 57 39z m-320 -74 c16 -9 19 -22 19 -96 0 -75
-2 -85 -17 -82 -16 3 -18 -8 -21 -99 l-3 -102 -42 1 c-23 1 -45 7 -49 12 -4 6
-8 52 -8 103 0 78 -2 91 -15 87 -24 -10 -22 161 3 175 22 14 108 14 133 1z
m363 -12 c16 -27 38 -146 29 -161 -3 -6 -12 -2 -21 9 -13 17 -14 14 -7 -28 5
-39 3 -48 -9 -48 -12 0 -16 -15 -18 -67 l-3 -68 -42 -2 -43 -1 0 68 c0 57 -3
68 -18 72 -15 4 -18 12 -14 37 3 25 1 30 -11 25 -8 -3 -17 -2 -20 3 -10 15 24
158 41 171 9 6 40 12 69 12 44 0 55 -4 67 -22z"/>
<path d="M1191 1114 c0 -11 3 -14 6 -6 3 7 2 16 -1 19 -3 4 -6 -2 -5 -13z"/>
</g>
</svg>
