<?xml version="1.0" standalone="no"?>
<!DOCTYPE svg PUBLIC "-//W3C//DTD SVG 20010904//EN"
 "http://www.w3.org/TR/2001/REC-SVG-20010904/DTD/svg10.dtd">
<svg version="1.0" xmlns="http://www.w3.org/2000/svg"
 width="219.000000pt" height="219.000000pt" viewBox="0 0 219.000000 219.000000"
 preserveAspectRatio="xMidYMid meet">
<metadata>
Created by potrace 1.16, written by Peter Selinger 2001-2019
</metadata>
<g transform="translate(0.000000,219.000000) scale(0.100000,-0.100000)"
fill="#000000" stroke="none">
<path d="M1013 1589 c-221 -38 -385 -206 -416 -426 -43 -293 193 -563 493
-563 145 0 254 45 356 145 230 228 185 607 -93 778 -91 57 -235 85 -340 66z
m87 -213 c0 -25 -4 -48 -10 -51 -6 -4 -10 13 -10 44 0 28 5 51 10 51 6 0 10
-20 10 -44z m138 7 c-37 -78 -58 -103 -58 -70 0 19 38 77 51 77 6 0 9 -3 7 -7z
m-258 -43 c23 -45 24 -50 10 -50 -8 0 -50 70 -50 85 0 18 23 -1 40 -35z m360
-58 c0 -8 -71 -52 -84 -52 -16 0 -3 20 27 39 33 22 57 27 57 13z m-449 -24
c37 -20 50 -38 30 -38 -16 0 -81 41 -81 51 0 13 8 11 51 -13z m277 2 c71 -44
88 -114 52 -228 -11 -35 -20 -86 -20 -114 0 -27 -7 -64 -16 -81 -9 -18 -20
-39 -24 -47 -5 -10 -25 -16 -59 -18 -56 -3 -81 9 -81 38 0 10 -7 23 -15 30
-10 8 -15 31 -15 72 0 34 -9 85 -21 121 -39 114 -26 172 51 225 42 28 103 29
148 2z m205 -115 c-4 -15 -86 -12 -91 3 -3 10 8 12 44 10 27 -2 48 -7 47 -13z
m-463 -15 c0 -5 -22 -10 -50 -10 -27 0 -50 5 -50 10 0 6 23 10 50 10 28 0 50
-4 50 -10z"/>
<path d="M1044 1246 c-70 -31 -90 -97 -59 -187 9 -24 19 -66 23 -94 l7 -50 80
0 80 0 7 50 c3 28 13 70 22 94 21 58 20 99 -4 139 -20 33 -72 62 -107 62 -10
-1 -32 -7 -49 -14z m56 -40 c0 -8 -10 -16 -22 -18 -14 -2 -29 -15 -38 -35 -17
-36 -30 -43 -30 -15 0 24 28 62 54 72 30 12 36 12 36 -4z"/>
<path d="M1017 884 c-3 -3 -3 -12 0 -20 4 -10 25 -14 78 -14 53 0 74 4 78 14
9 22 -2 26 -78 26 -39 0 -74 -3 -78 -6z"/>
<path d="M1042 813 c3 -14 14 -18 53 -18 39 0 50 4 53 18 3 14 -5 17 -53 17
-48 0 -56 -3 -53 -17z"/>
</g>
</svg>
