<?xml version="1.0" standalone="no"?>
<!DOCTYPE svg PUBLIC "-//W3C//DTD SVG 20010904//EN"
 "http://www.w3.org/TR/2001/REC-SVG-20010904/DTD/svg10.dtd">
<svg version="1.0" xmlns="http://www.w3.org/2000/svg"
 width="221.000000pt" height="223.000000pt" viewBox="0 0 221.000000 223.000000"
 preserveAspectRatio="xMidYMid meet">
<metadata>
Created by potrace 1.16, written by Peter Selinger 2001-2019
</metadata>
<g transform="translate(0.000000,223.000000) scale(0.100000,-0.100000)"
fill="#000000" stroke="none">
<path d="M1003 1575 c-237 -53 -402 -290 -366 -524 36 -233 229 -401 462 -401
141 0 249 47 344 149 113 122 153 278 112 436 -63 241 -312 395 -552 340z
m172 -46 c268 -49 420 -341 306 -584 -40 -87 -117 -167 -199 -207 -56 -28 -78
-33 -159 -36 -79 -4 -103 -1 -156 18 -152 55 -253 175 -280 333 -40 238 156
475 404 486 14 1 52 -4 84 -10z"/>
<path d="M1285 1321 c-4 -7 -51 -11 -120 -11 l-113 0 -37 -42 c-35 -41 -35
-43 -15 -52 29 -13 26 -54 -5 -68 -16 -7 -25 -19 -25 -34 0 -27 -28 -64 -47
-64 -8 0 -13 14 -13 40 0 38 -12 52 -25 30 -15 -24 -35 -9 -35 25 0 25 -4 35
-15 35 -13 0 -15 -20 -13 -137 l3 -138 73 -3 72 -3 0 91 0 90 65 0 65 0 0 30
c0 23 -6 33 -25 40 -18 7 -25 17 -25 35 0 23 4 25 40 25 l40 0 0 -124 0 -125
-27 -3 c-22 -2 -29 -9 -31 -30 l-3 -28 105 0 c60 0 108 4 111 10 14 22 -6 50
-36 50 l-29 0 0 125 0 126 78 -3 77 -3 0 60 0 60 -42 3 c-22 2 -44 -2 -48 -7z
m-155 -46 c-7 -8 -16 -15 -20 -15 -4 0 -10 7 -14 15 -4 11 2 15 21 15 21 0 24
-2 13 -15z m118 4 c-2 -6 -8 -10 -13 -10 -5 0 -11 4 -13 10 -2 6 4 11 13 11 9
0 15 -5 13 -11z m-173 -19 c18 -20 17 -20 -14 -20 -29 0 -31 2 -21 20 6 11 12
20 14 20 2 0 11 -9 21 -20z m123 8 c20 -20 14 -28 -25 -28 -35 0 -36 0 -18 20
21 23 27 24 43 8z m-318 -203 c0 -8 -7 -15 -15 -15 -8 0 -15 7 -15 15 0 8 7
15 15 15 8 0 15 -7 15 -15z m0 -55 c0 -11 -7 -20 -15 -20 -8 0 -15 9 -15 20 0
11 7 20 15 20 8 0 15 -9 15 -20z m65 0 c0 -8 -8 -16 -17 -18 -13 -2 -18 3 -18
18 0 15 5 20 18 18 9 -2 17 -10 17 -18z m-65 -60 c0 -11 -7 -20 -15 -20 -8 0
-15 9 -15 20 0 11 7 20 15 20 8 0 15 -9 15 -20z m65 0 c0 -8 -8 -16 -17 -18
-13 -2 -18 3 -18 18 0 15 5 20 18 18 9 -2 17 -10 17 -18z"/>
</g>
</svg>
