<?xml version="1.0" standalone="no"?>
<!DOCTYPE svg PUBLIC "-//W3C//DTD SVG 20010904//EN"
 "http://www.w3.org/TR/2001/REC-SVG-20010904/DTD/svg10.dtd">
<svg version="1.0" xmlns="http://www.w3.org/2000/svg"
 width="222.000000pt" height="221.000000pt" viewBox="0 0 222.000000 221.000000"
 preserveAspectRatio="xMidYMid meet">
<metadata>
Created by potrace 1.16, written by Peter Selinger 2001-2019
</metadata>
<g transform="translate(0.000000,221.000000) scale(0.100000,-0.100000)"
fill="#000000" stroke="none">
<path d="M983 1596 c-217 -53 -373 -251 -373 -475 1 -142 45 -255 138 -350
187 -191 490 -200 686 -21 213 195 219 519 13 717 -128 123 -296 169 -464 129z
m-43 -211 c8 -9 10 -29 7 -50 -5 -28 -2 -35 10 -35 35 0 53 -31 53 -91 0 -48
-4 -60 -21 -73 -18 -12 -23 -28 -27 -90 -5 -80 -6 -82 -64 -85 -37 -1 -48 23
-48 102 0 56 -3 65 -20 70 -18 4 -20 14 -20 74 0 75 10 93 49 93 19 0 22 3 13
12 -15 15 -15 61 0 76 17 17 53 15 68 -3z m321 -96 c27 -12 49 -26 49 -31 0
-15 -51 -98 -60 -98 -5 0 -12 9 -15 20 -7 22 -18 21 -115 -12 -52 -18 -56 -18
-67 -1 -24 32 -14 42 72 68 81 25 85 28 79 51 -7 29 -5 29 57 3z m127 -217 c9
-6 12 -38 10 -123 l-3 -114 -290 0 -290 0 0 45 0 45 83 3 82 3 0 34 0 35 95 0
95 0 0 33 c0 19 3 37 7 40 9 10 195 8 211 -1z"/>
<path d="M884 1366 c-9 -24 4 -48 23 -44 12 2 18 12 18 28 0 29 -32 41 -41 16z"/>
<path d="M898 1288 c9 -9 15 -9 24 0 9 9 7 12 -12 12 -19 0 -21 -3 -12 -12z"/>
<path d="M837 1273 c-11 -11 -8 -125 3 -118 6 3 10 19 10 36 0 16 5 29 10 29
6 0 10 -9 10 -20 0 -17 7 -20 40 -20 33 0 40 3 40 20 0 11 5 20 10 20 6 0 10
-17 10 -37 0 -26 3 -34 11 -26 5 5 9 32 7 58 -4 59 -26 79 -57 51 -20 -18 -22
-18 -39 -3 -19 18 -44 22 -55 10z"/>
<path d="M870 1123 c0 -65 12 -143 21 -137 5 3 9 39 9 80 0 43 4 74 10 74 6 0
10 -32 10 -75 0 -43 4 -75 10 -75 6 0 10 32 10 75 0 41 1 78 3 83 1 4 -15 8
-35 10 -38 3 -38 3 -38 -35z"/>
<path d="M1228 1262 c-3 -12 -31 -26 -81 -42 -43 -13 -77 -28 -77 -33 0 -5 8
-7 18 -4 136 38 155 42 160 29 3 -10 8 -8 18 5 19 26 17 38 -10 51 -20 9 -25
8 -28 -6z"/>
<path d="M1190 1015 l0 -35 -95 0 -95 0 0 -35 0 -35 -80 0 -80 0 0 -30 0 -30
268 2 267 3 3 98 3 97 -96 0 -95 0 0 -35z"/>
</g>
</svg>
