<?xml version="1.0" standalone="no"?>
<!DOCTYPE svg PUBLIC "-//W3C//DTD SVG 20010904//EN"
 "http://www.w3.org/TR/2001/REC-SVG-20010904/DTD/svg10.dtd">
<svg version="1.0" xmlns="http://www.w3.org/2000/svg"
 width="219.000000pt" height="218.000000pt" viewBox="0 0 219.000000 218.000000"
 preserveAspectRatio="xMidYMid meet">
<metadata>
Created by potrace 1.16, written by Peter Selinger 2001-2019
</metadata>
<g transform="translate(0.000000,218.000000) scale(0.100000,-0.100000)"
fill="#000000" stroke="none">
<path d="M971 1554 c-295 -79 -440 -418 -293 -687 65 -120 207 -217 351 -240
203 -31 402 76 496 266 35 71 39 86 43 180 5 116 -14 192 -70 280 -107 168
-331 254 -527 201z m275 -34 c257 -89 376 -384 253 -628 -39 -78 -129 -164
-216 -204 -131 -62 -307 -49 -431 31 -178 116 -250 327 -181 528 48 142 196
266 346 293 64 11 163 3 229 -20z"/>
<path d="M1034 1387 c-28 -25 -35 -62 -20 -107 l8 -25 -25 23 c-31 29 -71 27
-75 -5 -2 -14 10 -36 32 -61 25 -27 36 -49 36 -70 0 -42 22 -52 112 -52 83 0
98 9 98 55 0 22 10 41 35 65 26 25 35 42 33 60 -4 35 -42 39 -75 8 l-24 -23
11 30 c35 91 -72 166 -146 102z m106 -17 c57 -57 -15 -150 -79 -103 -38 29
-40 74 -5 102 33 26 58 27 84 1z m-140 -149 c0 -10 -9 -6 -30 14 -16 15 -27
32 -24 37 8 12 54 -31 54 -51z m228 18 c-23 -30 -38 -37 -38 -17 0 17 41 58
51 52 5 -3 -1 -18 -13 -35z m-70 -13 c7 -4 12 -29 12 -57 l0 -49 -75 0 -75 0
0 41 c0 64 10 74 72 73 30 0 60 -4 66 -8z"/>
<path d="M840 1181 c-12 -24 -13 -122 -1 -175 6 -23 25 -55 49 -80 31 -32 42
-52 47 -89 4 -26 12 -50 17 -53 5 -3 35 -3 65 1 l56 7 -7 76 c-5 64 -12 86
-45 142 -50 83 -65 97 -87 79 -11 -9 -14 -22 -10 -43 5 -22 3 -27 -4 -20 -6 6
-13 38 -16 70 -8 91 -12 104 -34 104 -11 0 -24 -9 -30 -19z m47 -147 c11 -28
80 -87 92 -79 6 3 2 23 -9 51 -23 52 -24 58 -10 49 5 -3 25 -34 45 -69 39 -70
46 -116 18 -116 -10 0 -28 -3 -40 -6 -18 -5 -24 0 -36 28 -8 19 -28 45 -45 56
-23 17 -32 33 -41 81 -7 34 -8 77 -4 102 l7 44 7 -60 c4 -33 11 -69 16 -81z
m163 -209 c0 -11 -12 -15 -45 -15 -42 0 -54 7 -38 23 3 4 24 7 45 7 27 0 38
-4 38 -15z"/>
<path d="M1303 1188 c-4 -7 -10 -44 -14 -81 -3 -38 -12 -74 -18 -80 -10 -9
-11 -6 -6 16 9 35 -10 61 -35 47 -9 -5 -36 -40 -58 -77 -33 -56 -42 -82 -47
-141 -9 -82 -5 -86 75 -87 l44 0 12 55 c10 40 22 63 48 87 21 20 40 51 47 76
15 51 14 149 -1 177 -12 23 -35 26 -47 8z m29 -147 c-9 -56 -16 -71 -46 -97
-19 -17 -40 -43 -46 -58 -8 -23 -15 -27 -33 -22 -12 3 -30 6 -39 6 -29 0 -22
50 18 116 56 93 69 96 33 7 -19 -46 -6 -50 39 -13 42 34 61 80 63 157 l1 38
11 -34 c8 -24 7 -52 -1 -100z m-102 -217 c0 -12 -9 -14 -42 -12 -59 4 -63 28
-4 28 35 0 46 -4 46 -16z"/>
</g>
</svg>
