<?xml version="1.0" standalone="no"?>
<!DOCTYPE svg PUBLIC "-//W3C//DTD SVG 20010904//EN"
 "http://www.w3.org/TR/2001/REC-SVG-20010904/DTD/svg10.dtd">
<svg version="1.0" xmlns="http://www.w3.org/2000/svg"
 width="221.000000pt" height="220.000000pt" viewBox="0 0 221.000000 220.000000"
 preserveAspectRatio="xMidYMid meet">
<metadata>
Created by potrace 1.16, written by Peter Selinger 2001-2019
</metadata>
<g transform="translate(0.000000,220.000000) scale(0.100000,-0.100000)"
fill="#000000" stroke="none">
<path d="M995 1610 c-112 -23 -197 -72 -279 -160 -186 -202 -180 -504 14 -701
279 -283 744 -161 855 225 23 79 17 228 -13 309 -42 116 -143 228 -259 286
-88 44 -219 61 -318 41z m123 -222 c15 -15 16 -54 2 -63 -23 -14 -9 -40 28
-53 63 -23 74 -21 84 16 8 30 12 33 41 30 27 -2 33 -8 35 -30 3 -28 -4 -34
-61 -52 -18 -6 -18 -8 2 -40 12 -18 21 -41 21 -50 0 -25 25 -30 53 -11 24 16
27 15 47 -5 16 -16 18 -24 10 -40 -11 -21 -54 -27 -65 -10 -14 22 -35 8 -45
-30 -6 -21 -15 -42 -20 -45 -19 -12 -10 -34 16 -37 54 -6 58 -73 4 -73 -22 0
-33 11 -44 48 -5 17 -8 16 -45 -3 -22 -11 -47 -20 -56 -20 -17 0 -21 -25 -5
-35 17 -11 11 -54 -9 -65 -41 -21 -78 25 -47 59 21 23 20 41 -2 41 -10 0 -35
9 -56 20 -39 19 -61 18 -53 -3 14 -40 -53 -65 -73 -28 -14 27 -3 50 29 57 40
10 40 11 20 51 -10 21 -19 45 -19 55 0 19 -25 25 -35 8 -10 -16 -62 -12 -69 6
-11 28 -7 43 15 54 16 9 26 8 44 -4 29 -19 45 -20 45 -3 0 7 9 30 20 51 21 42
19 56 -9 56 -10 0 -26 9 -35 19 -23 25 -6 61 29 61 26 0 37 -12 39 -44 1 -25
21 -25 81 -3 44 16 55 37 30 57 -19 16 -19 34 1 54 19 19 36 20 52 4z"/>
<path d="M1082 1361 c2 -7 7 -12 11 -12 12 1 9 15 -3 20 -7 2 -11 -2 -8 -8z"/>
<path d="M900 1285 c0 -9 5 -15 11 -13 6 2 11 8 11 13 0 5 -5 11 -11 13 -6 2
-11 -4 -11 -13z"/>
<path d="M1260 1285 c0 -8 5 -15 10 -15 6 0 10 7 10 15 0 8 -4 15 -10 15 -5 0
-10 -7 -10 -15z"/>
<path d="M1032 1245 c-28 -12 -32 -18 -27 -36 6 -19 4 -21 -14 -16 -14 3 -26
-2 -36 -16 -21 -30 -19 -54 6 -60 23 -6 17 -27 -7 -27 -18 0 -18 -40 0 -65 12
-17 16 -17 30 -6 22 18 33 5 18 -19 -10 -17 -9 -22 11 -34 38 -25 62 -24 65 2
4 28 26 24 30 -6 3 -21 5 -21 40 -7 46 20 47 22 33 39 -17 21 -4 41 15 25 19
-15 39 3 49 42 5 21 2 27 -14 32 -27 7 -27 27 -1 27 24 0 24 1 6 45 -16 37
-25 42 -43 24 -15 -15 -28 8 -14 25 9 11 4 17 -23 30 -43 20 -43 20 -49 -4 -3
-11 -10 -20 -16 -20 -6 0 -11 9 -11 20 0 23 -4 24 -48 5z m86 -51 c15 -10 22
-24 20 -38 -1 -12 7 -35 20 -50 12 -16 22 -37 22 -47 0 -17 -9 -19 -85 -19
-83 0 -85 1 -85 23 0 13 9 32 19 41 12 11 19 30 19 48 -1 19 6 36 17 44 24 18
26 17 53 -2z"/>
<path d="M1075 1170 c-8 -14 3 -30 21 -30 8 0 14 9 14 20 0 21 -24 28 -35 10z"/>
<path d="M1058 1099 c-10 -5 -18 -17 -18 -24 0 -11 14 -15 55 -15 58 0 66 7
37 33 -21 19 -49 21 -74 6z"/>
<path d="M830 1105 c0 -8 5 -15 10 -15 6 0 10 7 10 15 0 8 -4 15 -10 15 -5 0
-10 -7 -10 -15z"/>
<path d="M1332 1111 c4 -13 18 -16 19 -4 0 4 -5 9 -11 12 -7 2 -11 -2 -8 -8z"/>
<path d="M902 929 c2 -6 8 -10 13 -10 5 0 11 4 13 10 2 6 -4 11 -13 11 -9 0
-15 -5 -13 -11z"/>
<path d="M1260 925 c0 -8 5 -15 10 -15 6 0 10 7 10 15 0 8 -4 15 -10 15 -5 0
-10 -7 -10 -15z"/>
<path d="M1085 859 c-10 -15 3 -25 16 -12 7 7 7 13 1 17 -6 3 -14 1 -17 -5z"/>
</g>
</svg>
