<?xml version="1.0" standalone="no"?>
<!DOCTYPE svg PUBLIC "-//W3C//DTD SVG 20010904//EN"
 "http://www.w3.org/TR/2001/REC-SVG-20010904/DTD/svg10.dtd">
<svg version="1.0" xmlns="http://www.w3.org/2000/svg"
 width="220.000000pt" height="221.000000pt" viewBox="0 0 220.000000 221.000000"
 preserveAspectRatio="xMidYMid meet">
<metadata>
Created by potrace 1.16, written by Peter Selinger 2001-2019
</metadata>
<g transform="translate(0.000000,221.000000) scale(0.100000,-0.100000)"
fill="#000000" stroke="none">
<path d="M966 1549 c-113 -27 -244 -134 -296 -243 -150 -315 95 -677 440 -653
332 23 527 368 376 664 -76 150 -233 244 -403 242 -43 -1 -95 -5 -117 -10z
m235 -35 c76 -23 128 -56 188 -119 165 -174 154 -441 -24 -603 -210 -190 -546
-123 -668 135 -30 64 -32 74 -32 183 0 106 2 120 28 172 94 192 309 291 508
232z"/>
<path d="M963 1293 c-56 -42 -100 -80 -97 -85 7 -11 434 -10 434 1 0 13 -205
161 -221 160 -8 0 -60 -35 -116 -76z m214 -3 l88 -65 -92 -3 c-51 -1 -134 -1
-185 0 l-92 3 89 67 c50 36 93 66 97 65 4 -1 46 -31 95 -67z"/>
<path d="M904 1175 c-4 -9 -2 -21 5 -28 6 -6 11 -44 11 -87 0 -43 -5 -81 -11
-87 -24 -24 -2 -43 51 -43 43 0 50 3 50 19 0 11 -4 23 -10 26 -14 9 -13 165 1
165 6 0 9 10 7 23 -3 19 -10 22 -51 25 -36 2 -49 -1 -53 -13z m86 -15 c0 -5
-13 -10 -29 -10 -17 0 -33 5 -36 10 -4 6 8 10 29 10 20 0 36 -4 36 -10z m-12
-103 c3 -72 1 -77 -18 -77 -18 0 -20 6 -20 81 0 71 2 80 18 77 14 -3 17 -16
20 -81z m0 -104 c-10 -2 -28 -2 -40 0 -13 2 -5 4 17 4 22 1 32 -1 23 -4z"/>
<path d="M1033 1174 c-3 -9 -1 -25 5 -35 15 -23 16 -155 2 -164 -5 -3 -10 -15
-10 -26 0 -16 7 -19 48 -19 l47 0 0 130 0 130 -43 0 c-30 0 -44 -5 -49 -16z
m82 -14 c-3 -5 -17 -10 -30 -10 -13 0 -27 5 -30 10 -4 6 8 10 30 10 22 0 34
-4 30 -10z m-15 -100 c0 -73 -2 -80 -20 -80 -18 0 -20 7 -20 80 0 73 2 80 20
80 18 0 20 -7 20 -80z m8 -107 c-10 -2 -28 -2 -40 0 -13 2 -5 4 17 4 22 1 32
-1 23 -4z"/>
<path d="M1154 1175 c-4 -9 -2 -21 5 -28 6 -6 11 -44 11 -87 0 -43 -5 -81 -11
-87 -24 -24 -2 -43 51 -43 43 0 50 3 50 19 0 11 -4 23 -10 26 -14 9 -13 165 1
165 6 0 9 10 7 23 -3 19 -10 22 -51 25 -36 2 -49 -1 -53 -13z m86 -15 c0 -5
-13 -10 -29 -10 -17 0 -33 5 -36 10 -4 6 8 10 29 10 20 0 36 -4 36 -10z m-12
-103 c3 -72 1 -77 -18 -77 -18 0 -20 6 -20 81 0 71 2 80 18 77 14 -3 17 -16
20 -81z m0 -104 c-10 -2 -28 -2 -40 0 -13 2 -5 4 17 4 22 1 32 -1 23 -4z"/>
<path d="M860 875 l0 -35 223 2 222 3 0 30 0 30 -222 3 -223 2 0 -35z m430 0
l0 -25 -210 0 c-197 0 -210 1 -210 18 0 10 3 22 7 25 3 4 98 7 210 7 l203 0 0
-25z"/>
</g>
</svg>
