<?xml version="1.0" standalone="no"?>
<!DOCTYPE svg PUBLIC "-//W3C//DTD SVG 20010904//EN"
 "http://www.w3.org/TR/2001/REC-SVG-20010904/DTD/svg10.dtd">
<svg version="1.0" xmlns="http://www.w3.org/2000/svg"
 width="220.000000pt" height="221.000000pt" viewBox="0 0 220.000000 221.000000"
 preserveAspectRatio="xMidYMid meet">
<metadata>
Created by potrace 1.16, written by Peter Selinger 2001-2019
</metadata>
<g transform="translate(0.000000,221.000000) scale(0.100000,-0.100000)"
fill="#000000" stroke="none">
<path d="M981 1574 c-168 -45 -313 -192 -350 -355 -15 -62 -13 -175 3 -235 63
-237 306 -397 542 -357 300 52 485 362 382 641 -87 237 -339 370 -577 306z
m255 -74 c32 -11 76 -32 98 -46 l38 -26 -40 -41 c-35 -37 -39 -46 -35 -79 3
-21 8 -38 11 -38 4 0 30 24 60 53 l53 52 19 -25 c86 -111 103 -284 41 -416
-42 -89 -108 -157 -200 -202 -72 -35 -79 -37 -175 -37 -110 1 -182 21 -241 69
l-30 24 33 35 c30 30 33 39 27 71 -4 20 -10 36 -14 36 -4 0 -27 -20 -51 -45
-40 -41 -45 -43 -61 -29 -9 8 -29 42 -43 74 -127 283 67 588 375 590 51 0 95
-7 135 -20z"/>
<path d="M1111 1411 c-6 -11 -11 -80 -11 -162 0 -176 -18 -179 -22 -4 -3 106
-5 120 -21 123 -40 8 -47 -14 -47 -140 0 -77 -4 -117 -10 -113 -5 3 -10 46
-10 95 0 82 -2 89 -22 96 -44 13 -50 -14 -46 -216 3 -206 9 -227 73 -275 42
-32 99 -42 151 -25 57 19 234 194 234 232 0 43 -42 49 -81 12 -16 -15 -29 -26
-29 -23 -1 2 -2 73 -3 157 -2 123 -5 155 -17 162 -21 13 -26 12 -44 -6 -13
-12 -16 -38 -16 -117 0 -161 -19 -103 -22 68 -3 146 -4 150 -25 153 -14 2 -26
-4 -32 -17z"/>
</g>
</svg>
